<svg width="358" height="259" viewBox="0 0 358 259" fill="none" xmlns="http://www.w3.org/2000/svg">
<mask id="mask0_4370_1293" style="mask-type:luminance" maskUnits="userSpaceOnUse" x="0" y="0" width="358" height="259">
<path d="M358 0H0V259H358V0Z" fill="white"/>
</mask>
<g mask="url(#mask0_4370_1293)">
<g opacity="0.3">
<path d="M179.4 48C127.264 48 85 84.2128 85 128.883C85 173.554 127.264 209.767 179.4 209.767C231.536 209.767 273.8 173.554 273.8 128.883C273.8 84.2128 231.536 48 179.4 48Z" stroke="#00C2FF" stroke-width="38.1913" stroke-linecap="round"/>
</g>
<g opacity="0.3">
<path d="M138.536 137.286L168.776 159.695C168.776 159.695 202.693 123.033 216.325 108.298" stroke="#00C2FF" stroke-width="44.53" stroke-linecap="round"/>
</g>
<g opacity="0.49">
<path d="M138.536 137.286L168.776 159.695C168.776 159.695 177.887 149.846 188.564 138.306" stroke="#00C2FF" stroke-width="44.53" stroke-linecap="round"/>
</g>
<path d="M138.536 137.286C138.536 137.286 146.053 142.857 153.591 148.443" stroke="#197DF3" stroke-width="44.53" stroke-linecap="round"/>
</g>
</svg>
